<svg xmlns="http://www.w3.org/2000/svg" viewBox="0 0 42 42"><defs><style>.cls-1{fill:#fff;}.cls-2{fill:#e74335;}.cls-3{fill:#32a753;}.cls-4{fill:#4e79bc;}.cls-5{fill:#f8bb08;}</style></defs><g id="Layer_2" data-name="Layer 2"><g id="Layer_2-2" data-name="Layer 2"><rect class="cls-1" width="42" height="42" rx="21"/><g id="p1f9oQ.tif"><path class="cls-2" d="M13.22,17a5,5,0,0,1,.4-.71,9.07,9.07,0,0,1,5.72-4.11,9.42,9.42,0,0,1,2.95-.21A8.72,8.72,0,0,1,27,13.83c.19.14.36.3.55.47a.24.24,0,0,0-.08.06c-.84.83-1.68,1.67-2.51,2.51-.05.05-.07.05-.12,0a4.89,4.89,0,0,0-2.67-1.26,5.24,5.24,0,0,0-3.94,1,5.54,5.54,0,0,0-1.95,2.65l0,.08-.4-.32Z"/><path class="cls-3" d="M27.51,28a8.05,8.05,0,0,1-1.19.92,8.71,8.71,0,0,1-3.27,1.19,10.28,10.28,0,0,1-2,.11,9.14,9.14,0,0,1-7.8-5l0-.05.09-.06,2.33-1.81.65-.51a5.86,5.86,0,0,0,.61,1.26,5.38,5.38,0,0,0,3.36,2.39,5.49,5.49,0,0,0,2.06.07A5.26,5.26,0,0,0,24.18,26l.36-.22,0,0,1.49,1.15Z"/><path class="cls-4" d="M27.51,28l-1.44-1.12-1.49-1.15,0,0a5.92,5.92,0,0,0,.76-.65,4.24,4.24,0,0,0,1-2v0c0-.1,0-.1-.08-.1H21.52c-.08,0-.1,0-.1-.1,0-1.12,0-2.24,0-3.36,0-.08,0-.1.1-.1q4.23,0,8.47,0c.07,0,.09,0,.1.09.05.33.09.65.12,1a11,11,0,0,1,0,1.15A11.54,11.54,0,0,1,30,23.56a9,9,0,0,1-1.26,3,7.83,7.83,0,0,1-1.14,1.36A.81.81,0,0,1,27.51,28Z"/><path class="cls-5" d="M16.29,22.82l-.65.51-2.33,1.81-.09.06a8.78,8.78,0,0,1-.56-1.39A9.16,9.16,0,0,1,13.18,17l0-.08L15.89,19l.4.32a5.77,5.77,0,0,0-.2.82,5.17,5.17,0,0,0,0,1.84A7.54,7.54,0,0,0,16.29,22.82Z"/></g></g></g></svg>