<svg xmlns="http://www.w3.org/2000/svg" viewBox="0 0 42 42"><defs><style>.cls-1{fill:#fee505;}.cls-2{fill:#141414;}</style></defs><g id="Layer_2" data-name="Layer 2"><g id="Layer_3" data-name="Layer 3"><rect class="cls-1" width="42" height="42" rx="21"/><g id="kjzJoA"><path class="cls-2" d="M21,13.09A10.65,10.65,0,0,1,26,14.27a7.9,7.9,0,0,1,3,2.63,5.79,5.79,0,0,1,0,6.58A7.88,7.88,0,0,1,26.11,26a10,10,0,0,1-3.28,1.11,10.53,10.53,0,0,1-2.86.09l-.38,0a.5.5,0,0,0-.39.1l-3.4,2.29c-.23.16-.37.14-.46-.06a.22.22,0,0,1,0-.16c.26-1,.53-2,.81-3,0-.14,0-.19-.11-.24a8.38,8.38,0,0,1-2.35-1.79,6.06,6.06,0,0,1-1.63-3.41,5.68,5.68,0,0,1,.84-3.79,8.22,8.22,0,0,1,4.18-3.3,10.35,10.35,0,0,1,3.29-.7H21Z"/></g></g></g></svg>